<svg width="61" height="62" viewBox="0 0 61 62" fill="none" xmlns="http://www.w3.org/2000/svg">
<g filter="url(#filter0_d_1180_271)">
<path d="M7 29C7 16.5736 17.0736 6.5 29.5 6.5C41.9264 6.5 52 16.5736 52 29C52 41.4264 41.9264 51.5 29.5 51.5C17.0736 51.5 7 41.4264 7 29Z" fill="white" shape-rendering="crispEdges"/>
<path d="M20.0299 31.7696C19.8173 33.1636 20.768 34.1312 21.9321 34.6134C26.3948 36.4622 32.6052 36.4622 37.0679 34.6134C38.232 34.1312 39.1827 33.1636 38.9701 31.7696C38.8394 30.9129 38.1932 30.1995 37.7144 29.5029C37.0873 28.5793 37.025 27.5718 37.0249 26.5C37.0249 22.3579 33.6559 19 29.5 19C25.3441 19 21.9751 22.3579 21.9751 26.5C21.975 27.5718 21.9127 28.5793 21.2856 29.5029C20.8068 30.1995 20.1606 30.9129 20.0299 31.7696Z" fill="#21868E" stroke="#21868E" stroke-width="1.5" stroke-linecap="round" stroke-linejoin="round"/>
<path d="M25.5 36C25.9585 37.7252 27.5755 39 29.5 39C31.4245 39 33.0415 37.7252 33.5 36" stroke="#21868E" stroke-width="1.5" stroke-linecap="round" stroke-linejoin="round"/>
</g>
<defs>
<filter id="filter0_d_1180_271" x="0" y="0.5" width="61" height="61" filterUnits="userSpaceOnUse" color-interpolation-filters="sRGB">
<feFlood flood-opacity="0" result="BackgroundImageFix"/>
<feColorMatrix in="SourceAlpha" type="matrix" values="0 0 0 0 0 0 0 0 0 0 0 0 0 0 0 0 0 0 127 0" result="hardAlpha"/>
<feOffset dx="1" dy="2"/>
<feGaussianBlur stdDeviation="4"/>
<feComposite in2="hardAlpha" operator="out"/>
<feColorMatrix type="matrix" values="0 0 0 0 0.129412 0 0 0 0 0.52549 0 0 0 0 0.556863 0 0 0 0.2 0"/>
<feBlend mode="normal" in2="BackgroundImageFix" result="effect1_dropShadow_1180_271"/>
<feBlend mode="normal" in="SourceGraphic" in2="effect1_dropShadow_1180_271" result="shape"/>
</filter>
</defs>
</svg>
